<?xml version="1.0" encoding="iso-8859-1"?>
<!-- Generator: Adobe Illustrator 19.0.0, SVG Export Plug-In . SVG Version: 6.00 Build 0)  -->
<svg version="1.1" id="Layer_1" xmlns="http://www.w3.org/2000/svg" xmlns:xlink="http://www.w3.org/1999/xlink" x="0px" y="0px" width="32" height="32"
	 viewBox="0 0 512.002 512.002" style="enable-background:new 0 0 512.002 512.002;" xml:space="preserve">
<g>
	<g>
		<g>
			<path d="M68.269,324.268h136.533c9.412,0,17.067-7.654,17.067-17.067v-34.133c0-9.412-7.654-17.067-17.067-17.067h-93.867
				c-4.71,0-8.533,3.823-8.533,8.533s3.823,8.533,8.533,8.533h93.867v34.133H68.269v-34.133h8.533c4.71,0,8.533-3.823,8.533-8.533
				V128.001c0-4.71-3.823-8.533-8.533-8.533s-8.533,3.823-8.533,8.533v128c-9.412,0-17.067,7.654-17.067,17.067v34.133
				C51.202,316.613,58.857,324.268,68.269,324.268z"/>
			<path d="M170.925,347.794l-8.533,34.133c-1.143,4.574,1.638,9.199,6.204,10.351c0.7,0.171,1.391,0.256,2.082,0.256
				c3.823,0,7.296-2.594,8.269-6.468l8.533-34.125c1.143-4.574-1.638-9.207-6.204-10.351
				C176.71,340.447,172.077,343.229,170.925,347.794z"/>
			<path d="M68.269,102.401h93.867c4.71,0,8.533-3.823,8.533-8.533s-3.823-8.533-8.533-8.533H68.269V51.201h136.533v34.133h-8.533
				c-4.71,0-8.533,3.823-8.533,8.533v136.533c0,4.71,3.823,8.533,8.533,8.533s8.533-3.823,8.533-8.533v-128
				c9.412,0,17.067-7.654,17.067-17.067V51.201c0-9.412-7.654-17.067-17.067-17.067H68.269c-9.412,0-17.067,7.654-17.067,17.067
				v34.133C51.202,94.747,58.857,102.401,68.269,102.401z"/>
			<path d="M230.402,153.601h204.8c4.71,0,8.533-3.823,8.533-8.533s-3.823-8.533-8.533-8.533h-204.8
				c-4.71,0-8.533,3.823-8.533,8.533S225.692,153.601,230.402,153.601z"/>
			<path d="M258.502,343.835l-34.133,34.133c-3.337,3.337-3.337,8.73,0,12.066c1.664,1.664,3.849,2.5,6.033,2.5
				c2.185,0,4.369-0.836,6.033-2.5l34.133-34.133c3.337-3.336,3.337-8.73,0-12.066C267.232,340.498,261.839,340.498,258.502,343.835
				z"/>
			<path d="M91.795,341.59c-4.565,1.143-7.347,5.777-6.204,10.351l8.533,34.125c0.973,3.874,4.446,6.468,8.269,6.468
				c0.691,0,1.382-0.085,2.082-0.256c4.565-1.152,7.347-5.777,6.204-10.351l-8.533-34.133
				C101.003,343.229,96.369,340.447,91.795,341.59z"/>
			<path d="M494.935,119.468h-17.067c-9.412,0-17.067,7.654-17.067,17.067v42.667c0,4.71,3.823,8.533,8.533,8.533
				c4.71,0,8.533-3.823,8.533-8.533v-42.667h17.067v85.333h-17.067v-8.533c0-4.71-3.823-8.533-8.533-8.533H230.402
				c-4.71,0-8.533,3.823-8.533,8.533s3.823,8.533,8.533,8.533h230.4c0,9.412,7.654,17.067,17.067,17.067h17.067
				c9.412,0,17.067-7.654,17.067-17.067v-85.333C512.002,127.122,504.348,119.468,494.935,119.468z"/>
			<path d="M247.469,409.601H25.602c-14.114,0-25.6,11.486-25.6,25.6v34.133c0,4.71,3.823,8.533,8.533,8.533h256
				c4.71,0,8.533-3.823,8.533-8.533v-34.133C273.069,421.087,261.583,409.601,247.469,409.601z M256.002,460.801H17.069v-25.6
				c0-4.702,3.831-8.533,8.533-8.533h221.867c4.702,0,8.533,3.831,8.533,8.533V460.801z"/>
			<path d="M36.636,390.034c1.664,1.664,3.849,2.5,6.033,2.5c2.185,0,4.369-0.836,6.033-2.5c3.337-3.337,3.337-8.738,0-12.075
				l-34.133-34.125c-3.337-3.337-8.73-3.337-12.066,0c-3.336,3.336-3.336,8.73,0,12.066L36.636,390.034z"/>
		</g>
	</g>
</g>
<g>
</g>
<g>
</g>
<g>
</g>
<g>
</g>
<g>
</g>
<g>
</g>
<g>
</g>
<g>
</g>
<g>
</g>
<g>
</g>
<g>
</g>
<g>
</g>
<g>
</g>
<g>
</g>
<g>
</g>
</svg>
