<svg width="31" height="23" viewBox="0 0 31 23" fill="none" xmlns="http://www.w3.org/2000/svg">
<path d="M27.0039 5.74114V3.93164C27.0039 2.98693 26.0564 2.22266 24.8848 2.22266C24.5189 2.22266 24.1745 2.29781 23.8739 2.42999C23.5984 1.74391 22.7987 1.24609 21.8574 1.24609C21.4915 1.24609 21.1472 1.32124 20.8466 1.45342C20.571 0.767349 19.7714 0.269531 18.8301 0.269531C18.2376 0.269531 17.7014 0.466942 17.3164 0.784134C16.9314 0.466942 16.3952 0.269531 15.8027 0.269531C14.6341 0.269531 13.6836 1.03609 13.6836 1.97852V4.31883C12.8258 4.52406 12.072 4.94177 11.5221 5.52428C9.80694 5.69289 8.58276 5.85883 7.81126 6.02782C6.88129 5.04782 5.20277 4.78976 3.89297 5.39877L0.300133 7.09097C0.114235 7.17852 0 7.33912 0 7.51269C0 7.68626 0.114235 7.84666 0.299896 7.9344L3.89581 9.62851C5.11739 10.1965 6.71101 10.0165 7.67905 9.12592C8.41909 9.29644 9.58911 9.46181 11.2844 9.63595C11.4573 9.86273 11.6626 10.0725 11.8975 10.2617L14.0081 11.9639C14.5797 12.4249 14.8945 13.0379 14.8945 13.69V14.918H14.5918C13.4232 14.918 12.4727 15.6845 12.4727 16.627C12.4727 17.3073 12.9684 17.8959 13.6836 18.1708V22.2422C13.6836 22.5119 13.9546 22.7305 14.2891 22.7305H26.3984C26.7329 22.7305 27.0039 22.5119 27.0039 22.2422V18.1708C27.7191 17.8959 28.2148 17.3073 28.2148 16.627C28.2148 15.6845 27.2643 14.918 26.0957 14.918H25.793V13.5683C25.793 12.9639 25.9616 12.3551 26.2804 11.808C26.7672 10.9738 27.0037 10.2108 27.0039 9.47611C29.6911 9.03323 31 8.4162 31 7.59375C31 6.49855 28.4081 5.9891 27.0039 5.74114ZM24.8848 3.19922C25.3869 3.19922 25.793 3.52652 25.793 3.93164V5.88477C25.793 6.29427 25.3784 6.61719 24.8848 6.61719C24.3841 6.61719 23.9766 6.28855 23.9766 5.88477V3.93164C23.9766 3.52785 24.3841 3.19922 24.8848 3.19922ZM21.8574 2.22266C22.3581 2.22266 22.7656 2.55129 22.7656 2.95508V5.39648C22.7656 5.80027 22.3581 6.12891 21.8574 6.12891C21.3574 6.12891 20.9492 5.80313 20.9492 5.39648V2.95508C20.9492 2.55129 21.3567 2.22266 21.8574 2.22266ZM18.8301 1.24609C19.3308 1.24609 19.7383 1.57473 19.7383 1.97852V4.38235C19.4091 4.2494 19.0382 4.17578 18.6484 4.17578H17.9219V1.97852C17.9219 1.57473 18.3294 1.24609 18.8301 1.24609ZM14.8945 1.97852C14.8945 1.57473 15.302 1.24609 15.8027 1.24609C16.3034 1.24609 16.7109 1.57473 16.7109 1.97852V4.17578H14.8945V1.97852ZM10.7606 8.59492C9.68963 8.47571 8.86539 8.35936 8.29469 8.2474C8.38692 8.01127 8.4347 7.76389 8.4347 7.51269C8.4347 7.31432 8.40443 7.11634 8.34554 6.92446C8.9212 6.81193 9.75774 6.69615 10.8476 6.57828C10.7215 6.90501 10.6562 7.24661 10.6562 7.59375V7.84514C10.6562 8.0971 10.692 8.34887 10.7606 8.59492ZM4.50388 8.78394L1.80576 7.51269L4.50081 6.24335C5.70205 5.68488 7.22376 6.37991 7.22376 7.51269C7.22376 8.62906 5.71553 9.34756 4.50388 8.78394ZM14.8643 11.2734L12.7536 9.57129C12.5304 9.39124 12.3445 9.18543 12.2009 8.9596C11.9826 8.61571 11.8672 8.23042 11.8672 7.84533V7.59375C11.8672 6.26166 13.2013 5.15234 14.8945 5.15234H18.6484C19.3038 5.15234 19.8594 5.58417 19.8594 6.12891C19.8594 6.66735 19.3161 7.10547 18.6484 7.10547H15.0168C14.6895 7.10547 14.4213 7.31528 14.4116 7.57925C14.4019 7.84304 14.654 8.06544 14.9809 8.08108C17.67 8.21078 19.0195 10.187 18.3642 11.883C18.2646 12.1405 18.4427 12.4142 18.762 12.4945C19.081 12.5748 19.4206 12.431 19.52 12.1737C19.792 11.4701 19.8052 10.7193 19.5855 10.0332C21.7936 10.0172 23.9524 9.88409 25.7863 9.65216C25.7506 10.1891 25.5531 10.7603 25.1844 11.3924C24.7904 12.069 24.582 12.8214 24.582 13.5683V14.918H16.1055V13.69C16.1055 12.777 15.6646 11.9189 14.8643 11.2734ZM27.0039 16.627C27.0039 17.0307 26.5964 17.3594 26.0957 17.3594H22.7656C22.4312 17.3594 22.1602 17.578 22.1602 17.8477C22.1602 18.1174 22.4312 18.3359 22.7656 18.3359H25.793V21.7539H14.8945V18.3359H17.9219C18.2563 18.3359 18.5273 18.1174 18.5273 17.8477C18.5273 17.578 18.2563 17.3594 17.9219 17.3594H14.5918C14.0911 17.3594 13.6836 17.0307 13.6836 16.627C13.6836 16.2232 14.0911 15.8945 14.5918 15.8945H26.0957C26.5964 15.8945 27.0039 16.2232 27.0039 16.627ZM26.287 8.59358C24.2632 8.89342 21.7224 9.05859 19.1328 9.05859C19.1179 9.05859 19.1028 9.0584 19.0879 9.0584C18.8225 8.68761 18.4881 8.3586 18.0993 8.08203H18.6484C19.6406 8.08203 20.4946 7.59833 20.8686 6.90825C21.1661 7.03471 21.5034 7.10547 21.8574 7.10547C22.3153 7.10547 22.7396 6.98721 23.0866 6.78732C23.4612 7.27103 24.127 7.59375 24.8848 7.59375C25.6759 7.59375 26.3866 7.23555 26.7494 6.69577C28.8577 7.06713 29.6155 7.44765 29.7727 7.60424C29.6292 7.77228 28.7912 8.22318 26.287 8.59358Z" fill="#333333"/>
</svg>
